{"title":"Predestination.2014.BRRip.480p.x264.AAC-VYTO [P2PDL]","uid":11674646,"size":381627939,"categoryP":"video","categoryS":"movies","magnet":"?xt=urn:btih:9f4ad20a47a3c1bae0130d887bc95ded53c9f51e&amp;dn=Predestination.2014.BRRip.480p.x264.AAC-VYTO+%5BP2PDL%5D&amp;tr=udp%3A%2F%2Ftracker.openbittorrent.com%3A80&amp;tr=udp%3A%2F%2Fopen.demonii.com%3A1337&amp;tr=udp%3A%2F%2Ftracker.coppersurfer.tk%3A6969&amp;tr=udp%3A%2F%2Fexodus.desync.com%3A6969","seeders":9,"leechers":0,"uploader":"ValidusVyto","files":6,"time":1422806799,"description":"Predestination.2014.BRRip.480p.x264.AAC-VYTO\n\n\nGenre: Drama | Mystery | Sci-Fi\nIMDb:http://www.imdb.com/title/tt2397535/\n\nGeneral\nFormat                      : MPEG-4\nFile size                   : 351 MiB\nDuration                    : 1h 37mn\nOverall bit rate            : 502 Kbps\n\nVideo\nID                          : 1\nFormat                      : AVC\nBit rate                    : 459 Kbps\nWidth                       : 720 pixels\nHeight                      : 304 pixels\nDisplay aspect ratio        : 2.35:1\nFrame rate mode             : Constant\nFrame rate                  : 23.976 fps\nBit depth                   : 8 bits\nStream size                 : 321 MiB (91%)\nWriting library             : x264 core 142 r2491 24e4fed\n\nAudio\nID                          : 2\nFormat                      : AAC\nBit rate mode               : Variable\nBit rate                    : 40.0 Kbps\nChannel(s)                  : 2 channels\nChannel positions           : Front: L R\nSampling rate               : 48.0 KHz\nStream size                 : 28.0 MiB (8%)\nLanguage                    : English\n\nSubtitle                    : Yes(English)\n &lt;a href=&quot;\nhttp://someimage.com/h0QXSWS&quot; rel=&quot;nofollow&quot; target=&quot;_NEW&quot;&gt;\nhttp://someimage.com/h0QXSWS&lt;/a&gt; &lt;a href=&quot;\nhttp://someimage.com/u6wPemw&quot; rel=&quot;nofollow&quot; target=&quot;_NEW&quot;&gt;\nhttp://someimage.com/u6wPemw&lt;/a&gt;\n\n----------------------------------------------------------------------------------------------------\n\n\nEncoder Notes: Looking For Early Access To Anything You Can Provide DVDScr, R5, DVDR, BluRay, Direct\nAudio, Music Releases and Seedboxes. We require dedicated servers, so as to do more \nand fast releases of movies.\nIf You Got anything to offer please contact us.\n\nSupport us by donating LC - LezHMTo2cYaiztCCcWxB4cNFVNVpWW3GS","torrent":{"xt":"urn:btih:9f4ad20a47a3c1bae0130d887bc95ded53c9f51e","amp;dn":"Predestination.2014.BRRip.480p.x264.AAC-VYTO+%5BP2PDL%5D","amp;tr":["udp%3A%2F%2Ftracker.openbittorrent.com%3A80","udp%3A%2F%2Fopen.demonii.com%3A1337","udp%3A%2F%2Ftracker.coppersurfer.tk%3A6969","udp%3A%2F%2Fexodus.desync.com%3A6969"],"infoHash":"9f4ad20a47a3c1bae0130d887bc95ded53c9f51e","infoHashBuffer":{"type":"Buffer","data":[159,74,210,10,71,163,193,186,224,19,13,136,123,201,93,237,83,201,245,30]},"announce":[],"urlList":[]}}